<svg xmlns="http://www.w3.org/2000/svg" viewBox="0 0 1200 900" role="img" aria-labelledby="title desc">
  <title id="title">Koehlermeiler auf einer Waldlichtung</title>
  <desc id="desc">Flacher, bewachsener Kohlenmeiler mit Holzverschalung vor dichtem Wald.</desc>
  <defs>
    <linearGradient id="forestSky" x1="0" x2="0" y1="0" y2="1">
      <stop offset="0%" stop-color="#cfd8c2"/>
      <stop offset="50%" stop-color="#d9d4b9"/>
      <stop offset="100%" stop-color="#a4aa80"/>
    </linearGradient>
    <linearGradient id="grass" x1="0" x2="0" y1="0" y2="1">
      <stop offset="0%" stop-color="#879a67"/>
      <stop offset="100%" stop-color="#566d48"/>
    </linearGradient>
    <linearGradient id="mound" x1="0" x2="1" y1="0" y2="1">
      <stop offset="0%" stop-color="#7f895f"/>
      <stop offset="48%" stop-color="#5f714c"/>
      <stop offset="100%" stop-color="#384d34"/>
    </linearGradient>
    <linearGradient id="woodFace" x1="0" x2="1" y1="0" y2="0">
      <stop offset="0%" stop-color="#9c835f"/>
      <stop offset="100%" stop-color="#594836"/>
    </linearGradient>
  </defs>

  <rect width="1200" height="900" fill="url(#forestSky)"/>

  <g opacity="0.96">
    <rect x="70" y="225" width="20" height="475" fill="#243525"/>
    <rect x="164" y="170" width="24" height="532" fill="#263a27"/>
    <rect x="284" y="235" width="18" height="452" fill="#30472f"/>
    <rect x="914" y="202" width="22" height="500" fill="#263a27"/>
    <rect x="1044" y="258" width="18" height="440" fill="#2d422e"/>
    <rect x="1128" y="214" width="22" height="494" fill="#253827"/>
  </g>
  <g fill="#24452e" opacity="0.82">
    <path d="M4 265 C42 154 126 152 170 268 C126 316 48 318 4 265 Z"/>
    <path d="M90 188 C144 42 244 60 292 196 C238 250 150 252 90 188 Z"/>
    <path d="M214 254 C254 142 330 150 376 258 C332 304 260 304 214 254 Z"/>
    <path d="M838 224 C884 84 986 96 1030 230 C980 282 894 280 838 224 Z"/>
    <path d="M978 278 C1022 154 1106 164 1150 284 C1100 328 1024 330 978 278 Z"/>
    <path d="M1060 232 C1108 100 1190 104 1232 238 C1188 292 1112 292 1060 232 Z"/>
  </g>
  <g fill="#315a38" opacity="0.5">
    <path d="M0 365 C84 314 174 334 248 386 C150 426 62 424 0 365 Z"/>
    <path d="M860 374 C970 310 1090 336 1200 396 L1200 470 C1080 426 964 422 860 374 Z"/>
  </g>

  <path d="M0 626 C148 588 272 596 420 626 C602 662 738 650 910 604 C1048 566 1130 580 1200 604 V900 H0 Z" fill="url(#grass)"/>
  <path d="M0 720 C184 670 340 690 512 730 C694 772 864 758 1200 690 V900 H0 Z" fill="#536d47"/>

  <ellipse cx="617" cy="676" rx="430" ry="72" fill="#22301f" opacity="0.24"/>

  <path d="M225 624 C258 512 344 420 478 374 C598 334 770 338 894 414 C984 470 1032 552 1044 620 C902 694 390 700 225 624 Z" fill="#342b23"/>
  <path d="M238 612 C278 510 360 432 486 390 C600 352 752 356 874 424 C956 470 1008 548 1022 604 C862 666 410 676 238 612 Z" fill="url(#mound)"/>
  <path d="M292 585 C346 490 424 432 526 402 C634 370 764 382 854 438 C780 450 672 460 548 492 C432 522 354 556 292 585 Z" fill="#8b9669" opacity="0.38"/>
  <path d="M430 397 C532 348 726 350 866 426" fill="none" stroke="#b8b383" stroke-width="5" stroke-linecap="round" opacity="0.55"/>
  <path d="M322 540 C470 568 766 566 980 538" fill="none" stroke="#2c3d2d" stroke-width="6" stroke-linecap="round" opacity="0.4"/>

  <path d="M225 624 C292 654 410 672 548 678 L532 736 C398 734 286 710 224 674 Z" fill="#3a2d22"/>
  <path d="M250 616 C324 640 430 652 548 654 L532 715 C408 712 304 694 242 664 Z" fill="url(#woodFace)" stroke="#4d3b2c" stroke-width="6"/>

  <g stroke="#d3bb8a" stroke-width="14" stroke-linecap="round">
    <path d="M274 622 L284 536"/>
    <path d="M314 635 L334 504"/>
    <path d="M358 646 L390 468"/>
    <path d="M404 652 L444 436"/>
    <path d="M452 656 L496 408"/>
    <path d="M502 658 L548 390"/>
  </g>
  <g stroke="#4d3b2c" stroke-width="4" stroke-linecap="round" opacity="0.68">
    <path d="M294 540 L550 550"/>
    <path d="M270 588 C354 610 438 620 544 620"/>
    <path d="M344 502 L474 512"/>
  </g>

  <g stroke="#2d3d2a" stroke-width="5" stroke-linecap="round" opacity="0.62">
    <path d="M620 388 L588 650"/>
    <path d="M682 384 L650 660"/>
    <path d="M742 394 L724 658"/>
    <path d="M806 420 L804 646"/>
    <path d="M872 456 L906 620"/>
  </g>

  <g fill="none" stroke-linecap="round">
    <path d="M602 360 C560 306 598 252 654 218 C704 188 710 142 666 108" stroke="#e7e0cf" stroke-width="28" opacity="0.42"/>
    <path d="M642 360 C704 314 686 264 626 232 C574 204 572 162 620 124 C652 98 650 72 614 48" stroke="#f4efe4" stroke-width="20" opacity="0.38"/>
    <path d="M682 364 C742 324 760 276 716 232 C684 200 696 162 742 138" stroke="#d8d5c8" stroke-width="18" opacity="0.34"/>
    <path d="M520 372 C560 314 656 300 720 354" stroke="#e7e0cf" stroke-width="13" opacity="0.78"/>
    <path d="M560 344 C594 310 654 306 696 338" stroke="#fff8e8" stroke-width="6" opacity="0.66"/>
  </g>

  <g transform="translate(160 665)">
    <ellipse cx="20" cy="48" rx="55" ry="13" fill="#24301f" opacity="0.25"/>
    <path d="M-20 42 C-32 12 -2 -14 32 -6 C62 4 70 34 48 52 C28 62 -8 60 -20 42 Z" fill="#24301f"/>
    <path d="M-6 30 C4 10 24 6 42 12" fill="none" stroke="#60764b" stroke-width="6" stroke-linecap="round"/>
  </g>
</svg>
