<svg xmlns="http://www.w3.org/2000/svg" viewBox="0 0 1200 900" role="img" aria-labelledby="title desc">
  <title id="title">Historisch inspirierte Waldlandschaft</title>
  <desc id="desc">Illustrative Landschaft mit Wald, Haeusern und Weg.</desc>
  <defs>
    <linearGradient id="sky" x1="0" x2="0" y1="0" y2="1">
      <stop offset="0%" stop-color="#f5dcae"/>
      <stop offset="100%" stop-color="#fbf4de"/>
    </linearGradient>
  </defs>
  <rect width="1200" height="900" fill="url(#sky)"/>
  <circle cx="920" cy="160" r="72" fill="#d79b34" opacity="0.92"/>
  <path d="M0 580 C160 520 320 510 480 560 C620 605 760 612 900 548 C1010 500 1110 500 1200 548 V900 H0 Z" fill="#6f9668"/>
  <path d="M0 645 C205 595 345 620 490 680 C640 740 852 720 1020 650 C1088 620 1150 620 1200 640 V900 H0 Z" fill="#4d7350"/>
  <path d="M580 480 L660 370 L745 480 Z" fill="#a85f39"/>
  <rect x="605" y="480" width="112" height="96" fill="#d7bf96"/>
  <path d="M708 580 Q470 618 310 736" stroke="#d9c29a" stroke-width="28" fill="none" stroke-linecap="round"/>
  <g fill="#28442f">
    <rect x="144" y="462" width="18" height="110"/>
    <circle cx="154" cy="436" r="44"/>
    <rect x="214" y="442" width="20" height="120"/>
    <circle cx="224" cy="414" r="52"/>
    <rect x="1004" y="452" width="18" height="120"/>
    <circle cx="1014" cy="420" r="50"/>
  </g>
</svg>
